<?xml version="1.0" encoding="utf-8"?>
<!-- Generator: Adobe Illustrator 23.0.1, SVG Export Plug-In . SVG Version: 6.00 Build 0)  -->
<!DOCTYPE svg PUBLIC "-//W3C//DTD SVG 1.1//EN" "http://www.w3.org/Graphics/SVG/1.1/DTD/svg11.dtd" [
	<!ENTITY ns_extend "http://ns.adobe.com/Extensibility/1.0/">
	<!ENTITY ns_ai "http://ns.adobe.com/AdobeIllustrator/10.0/">
	<!ENTITY ns_graphs "http://ns.adobe.com/Graphs/1.0/">
	<!ENTITY ns_vars "http://ns.adobe.com/Variables/1.0/">
	<!ENTITY ns_imrep "http://ns.adobe.com/ImageReplacement/1.0/">
	<!ENTITY ns_sfw "http://ns.adobe.com/SaveForWeb/1.0/">
	<!ENTITY ns_custom "http://ns.adobe.com/GenericCustomNamespace/1.0/">
	<!ENTITY ns_adobe_xpath "http://ns.adobe.com/XPath/1.0/">
]>
<svg version="1.1" id="Capa_1" xmlns:x="&ns_extend;" xmlns:i="&ns_ai;" xmlns:graph="&ns_graphs;"
	 xmlns="http://www.w3.org/2000/svg" xmlns:xlink="http://www.w3.org/1999/xlink" x="0px" y="0px" viewBox="0 0 800 800"
	 style="enable-background:new 0 0 800 800;" xml:space="preserve">
<style type="text/css">
	.st0{fill:url(#SVGID_1_);}
	.st1{fill:#FFFFFF;}
</style>
<metadata>
	<sfw  xmlns="&ns_sfw;">
		<slices></slices>
		<sliceSourceBounds  bottomLeftOrigin="true" height="800" width="800" x="0" y="0"></sliceSourceBounds>
	</sfw>
</metadata>
<linearGradient id="SVGID_1_" gradientUnits="userSpaceOnUse" x1="400" y1="0" x2="400" y2="800">
	<stop  offset="0" style="stop-color:#0ED4FC"/>
	<stop  offset="1" style="stop-color:#0C57EF"/>
</linearGradient>
<path class="st0" d="M638.4,0H161.6C72.3,0,0,72.3,0,161.6v476.9C0,727.7,72.3,800,161.6,800h476.9c89.2,0,161.6-72.3,161.6-161.6
	V161.6C800,72.3,727.7,0,638.4,0z"/>
<path class="st1" d="M396.6,183.8l16.2-28c10-17.5,32.3-23.4,49.8-13.4c17.5,10,23.4,32.3,13.4,49.8L319.9,462.4h112.9
	c36.6,0,57.1,43,41.2,72.8h-331c-20.2,0-36.4-16.2-36.4-36.4c0-20.2,16.2-36.4,36.4-36.4h92.8l118.8-205.9l-37.1-64.4
	c-10-17.5-4.1-39.6,13.4-49.8c17.5-10,39.6-4.1,49.8,13.4L396.6,183.8L396.6,183.8z M256.2,572.7l-35,60.7
	c-10,17.5-32.3,23.4-49.8,13.4c-17.5-10-23.4-32.3-13.4-49.8l26-45C213.4,542.9,237.3,549.9,256.2,572.7L256.2,572.7z M557.6,462.6
	h94.7c20.2,0,36.4,16.2,36.4,36.4s-16.2,36.4-36.4,36.4h-52.6l35.5,61.6c10,17.5,4.1,39.6-13.4,49.8c-17.5,10-39.6,4.1-49.8-13.4
	c-59.8-103.7-104.7-181.3-134.5-233c-30.5-52.6-8.7-105.4,12.8-123.3C474.2,318.1,509.9,380,557.6,462.6L557.6,462.6z"/>
</svg>
